<svg xmlns="http://www.w3.org/2000/svg" width="390.0" height="631.0" viewBox="0 0 390.0 631.0"><g transform="translate(0 0)"><rect x="0.5" y="0.5" width="389.0" height="630.0" rx="0" fill="#F5F7F7" stroke="none"/><g transform="translate(0 0)"><rect x="0.5" y="0.5" width="389.0" height="55.0" rx="0" fill="#FFFFFF" stroke="none"/><g transform="translate(20 14.5)"><text font-family="Arial,Nimbus Sans,sans-serif" font-size="18" font-weight="700" fill="#0B4352" text-anchor="start"><tspan x="0" y="18">Proz Saúde</tspan></text></g><g transform="translate(349.0 17.5)"><svg width="21.0" height="21.0" viewBox="0 0 24 24" fill="none" stroke="#0B4352" stroke-width="1.75" stroke-linecap="round" stroke-linejoin="round"><circle cx="12" cy="8" r="5"/><path d="M20 21a8 8 0 0 0-16 0"/></svg></g></g><g transform="translate(0 56.0)"><g transform="translate(0 0)"><g transform="translate(20 20)"><text font-family="Arial,Nimbus Sans,sans-serif" font-size="24" font-weight="700" fill="#171A1C" text-anchor="start"><tspan x="0" y="24">Busca sem resultados</tspan></text></g><g transform="translate(20 75)"><g transform="translate(0 0)"><text font-family="Arial,Nimbus Sans,sans-serif" font-size="13" font-weight="700" fill="#171A1C" text-anchor="start"><tspan x="0" y="13">Buscar paciente</tspan></text></g><g transform="translate(0 27)"><rect x="0.5" y="0.5" width="349.0" height="45.0" rx="6" fill="#FFFFFF" stroke="#DDE3E5"/><g transform="translate(12 13.0)"><svg width="20.0" height="20.0" viewBox="0 0 24 24" fill="none" stroke="#667075" stroke-width="1.75" stroke-linecap="round" stroke-linejoin="round"><path d="m21 21-4.34-4.34"/><circle cx="11" cy="11" r="8"/></svg></g><g transform="translate(40.0 12.5)"><text font-family="Arial,Nimbus Sans,sans-serif" font-size="14" font-weight="400" fill="#667075" text-anchor="start"><tspan x="0" y="14">PS-00999</tspan></text></g></g></g><g transform="translate(20 168.0)"><rect x="0.5" y="0.5" width="349.0" height="188.0" rx="8" fill="#FFFFFF" stroke="#DDE3E5"/><g transform="translate(24 24)"><svg width="32.0" height="32.0" viewBox="0 0 24 24" fill="none" stroke="#0B4352" stroke-width="1.75" stroke-linecap="round" stroke-linejoin="round"><path d="M15 2h-4a2 2 0 0 0-2 2v11a2 2 0 0 0 2 2h8a2 2 0 0 0 2-2V8"/><path d="M16.706 2.706A2.4 2.4 0 0 0 15 2v5a1 1 0 0 0 1 1h5a2.4 2.4 0 0 0-.706-1.706z"/><path d="M5 7a2 2 0 0 0-2 2v11a2 2 0 0 0 2 2h8a2 2 0 0 0 1.732-1"/></svg></g><g transform="translate(24 74.0)"><text font-family="Arial,Nimbus Sans,sans-serif" font-size="21" font-weight="700" fill="#171A1C" text-anchor="start"><tspan x="0" y="21">Nenhum paciente encontrado</tspan></text></g><g transform="translate(24 123.0)"><text font-family="Arial,Nimbus Sans,sans-serif" font-size="14" font-weight="400" fill="#667075" text-anchor="start"><tspan x="0" y="14">Confira o nome ou número do prontuário</tspan><tspan x="0" y="35">digitado.</tspan></text></g></g><g transform="translate(20 377.0)"><g transform="translate(0 0)"><rect x="0.5" y="0.5" width="349.0" height="45.0" rx="6" fill="#0B4352" stroke="none"/><g transform="translate(127.5 12.5)"><text font-family="Arial,Nimbus Sans,sans-serif" font-size="14" font-weight="700" fill="#FFFFFF" text-anchor="middle"><tspan x="47.5" y="14">Limpar busca</tspan></text></g></g><g transform="translate(0 56.0)"><rect x="0.5" y="0.5" width="349.0" height="45.0" rx="6" fill="#FFFFFF" stroke="#DDE3E5"/><g transform="translate(110.0 12.5)"><text font-family="Arial,Nimbus Sans,sans-serif" font-size="14" font-weight="700" fill="#0B4352" text-anchor="middle"><tspan x="65.0" y="14">Cadastrar paciente</tspan></text></g></g></g></g></g><g transform="translate(0 555.0)"><rect x="0.5" y="0.5" width="389.0" height="75.0" rx="0" fill="#FFFFFF" stroke="#DDE3E5"/><g transform="translate(6 4.0)"><g transform="translate(26.5 8)"><svg width="21.0" height="21.0" viewBox="0 0 24 24" fill="none" stroke="#0B4352" stroke-width="1.75" stroke-linecap="round" stroke-linejoin="round"><path d="M15 21v-8a1 1 0 0 0-1-1h-4a1 1 0 0 0-1 1v8"/><path d="M3 10a2 2 0 0 1 .709-1.528l7-6a2 2 0 0 1 2.582 0l7 6A2 2 0 0 1 21 10v9a2 2 0 0 1-2 2H5a2 2 0 0 1-2-2z"/></svg></g><g transform="translate(0.0 35.0)"><text font-family="Arial,Nimbus Sans,sans-serif" font-size="10" font-weight="400" fill="#0B4352" text-anchor="middle"><tspan x="37.0" y="10">Início</tspan></text></g></g><g transform="translate(82.0 4.0)"><g transform="translate(26.5 8)"><svg width="21.0" height="21.0" viewBox="0 0 24 24" fill="none" stroke="#0B4352" stroke-width="1.75" stroke-linecap="round" stroke-linejoin="round"><path d="M16 21v-2a4 4 0 0 0-4-4H6a4 4 0 0 0-4 4v2"/><path d="M16 3.128a4 4 0 0 1 0 7.744"/><path d="M22 21v-2a4 4 0 0 0-3-3.87"/><circle cx="9" cy="7" r="4"/></svg></g><g transform="translate(0.0 35.0)"><text font-family="Arial,Nimbus Sans,sans-serif" font-size="10" font-weight="400" fill="#0B4352" text-anchor="middle"><tspan x="37.0" y="10">Pacientes</tspan></text></g></g><g transform="translate(158.0 4.0)"><g transform="translate(26.5 8)"><svg width="21.0" height="21.0" viewBox="0 0 24 24" fill="none" stroke="#0B4352" stroke-width="1.75" stroke-linecap="round" stroke-linejoin="round"><rect width="8" height="4" x="8" y="2" rx="1" ry="1"/><path d="M16 4h2a2 2 0 0 1 2 2v14a2 2 0 0 1-2 2H6a2 2 0 0 1-2-2V6a2 2 0 0 1 2-2h2"/><path d="M12 11h4"/><path d="M12 16h4"/><path d="M8 11h.01"/><path d="M8 16h.01"/></svg></g><g transform="translate(0.0 35.0)"><text font-family="Arial,Nimbus Sans,sans-serif" font-size="10" font-weight="400" fill="#0B4352" text-anchor="middle"><tspan x="37.0" y="10">Prontuário</tspan></text></g></g><g transform="translate(234.0 4.0)"><g transform="translate(26.5 8)"><svg width="21.0" height="21.0" viewBox="0 0 24 24" fill="none" stroke="#0B4352" stroke-width="1.75" stroke-linecap="round" stroke-linejoin="round"><path d="M11 2v2"/><path d="M5 2v2"/><path d="M5 3H4a2 2 0 0 0-2 2v4a6 6 0 0 0 12 0V5a2 2 0 0 0-2-2h-1"/><path d="M8 15a6 6 0 0 0 12 0v-3"/><circle cx="20" cy="10" r="2"/></svg></g><g transform="translate(0.0 35.0)"><text font-family="Arial,Nimbus Sans,sans-serif" font-size="10" font-weight="400" fill="#0B4352" text-anchor="middle"><tspan x="37.0" y="10">Enfermagem</tspan></text></g></g><g transform="translate(310.0 4.0)"><g transform="translate(26.5 8)"><svg width="21.0" height="21.0" viewBox="0 0 24 24" fill="none" stroke="#0B4352" stroke-width="1.75" stroke-linecap="round" stroke-linejoin="round"><path d="M4 5h16"/><path d="M4 12h16"/><path d="M4 19h16"/></svg></g><g transform="translate(0.0 35.0)"><text font-family="Arial,Nimbus Sans,sans-serif" font-size="10" font-weight="400" fill="#0B4352" text-anchor="middle"><tspan x="37.0" y="10">Mais</tspan></text></g></g></g></g></svg>