<svg xmlns="http://www.w3.org/2000/svg" width="1440.0" height="654.0" viewBox="0 0 1440.0 654.0"><g transform="translate(0 0)"><rect x="0.5" y="0.5" width="1439.0" height="653.0" rx="0" fill="#F5F7F7" stroke="none"/><g transform="translate(0 0)"><rect x="0.5" y="0.5" width="239.0" height="653.0" rx="0" fill="#0B4352" stroke="none"/><g transform="translate(12 12)"><rect x="0.5" y="0.5" width="215.0" height="51.0" rx="6" fill="#07333F" stroke="none"/><g transform="translate(12 15.0)"><svg width="22.0" height="22.0" viewBox="0 0 24 24" fill="none" stroke="#FFFFFF" stroke-width="1.75" stroke-linecap="round" stroke-linejoin="round"><rect width="18" height="18" x="3" y="3" rx="2"/><path d="M9 3v18"/><path d="m16 15-3-3 3-3"/></svg></g><g transform="translate(46.0 11.5)"><text font-family="Arial,Nimbus Sans,sans-serif" font-size="20" font-weight="700" fill="#FFFFFF" text-anchor="start"><tspan x="0" y="20">Proz Saúde</tspan></text></g></g><g transform="translate(12 70.0)"><g transform="translate(12 11.5)"><svg width="21.0" height="21.0" viewBox="0 0 24 24" fill="none" stroke="#FFFFFF" stroke-width="1.75" stroke-linecap="round" stroke-linejoin="round"><path d="M15 21v-8a1 1 0 0 0-1-1h-4a1 1 0 0 0-1 1v8"/><path d="M3 10a2 2 0 0 1 .709-1.528l7-6a2 2 0 0 1 2.582 0l7 6A2 2 0 0 1 21 10v9a2 2 0 0 1-2 2H5a2 2 0 0 1-2-2z"/></svg></g><g transform="translate(45.0 11.5)"><text font-family="Arial,Nimbus Sans,sans-serif" font-size="14" font-weight="400" fill="#FFFFFF" text-anchor="start"><tspan x="0" y="14">Início</tspan></text></g></g><g transform="translate(12 120.0)"><g transform="translate(12 11.5)"><svg width="21.0" height="21.0" viewBox="0 0 24 24" fill="none" stroke="#FFFFFF" stroke-width="1.75" stroke-linecap="round" stroke-linejoin="round"><path d="M16 21v-2a4 4 0 0 0-4-4H6a4 4 0 0 0-4 4v2"/><path d="M16 3.128a4 4 0 0 1 0 7.744"/><path d="M22 21v-2a4 4 0 0 0-3-3.87"/><circle cx="9" cy="7" r="4"/></svg></g><g transform="translate(45.0 11.5)"><text font-family="Arial,Nimbus Sans,sans-serif" font-size="14" font-weight="400" fill="#FFFFFF" text-anchor="start"><tspan x="0" y="14">Pacientes</tspan></text></g></g><g transform="translate(12 170.0)"><g transform="translate(12 11.5)"><svg width="21.0" height="21.0" viewBox="0 0 24 24" fill="none" stroke="#FFFFFF" stroke-width="1.75" stroke-linecap="round" stroke-linejoin="round"><rect width="8" height="4" x="8" y="2" rx="1" ry="1"/><path d="M16 4h2a2 2 0 0 1 2 2v14a2 2 0 0 1-2 2H6a2 2 0 0 1-2-2V6a2 2 0 0 1 2-2h2"/><path d="M12 11h4"/><path d="M12 16h4"/><path d="M8 11h.01"/><path d="M8 16h.01"/></svg></g><g transform="translate(45.0 11.5)"><text font-family="Arial,Nimbus Sans,sans-serif" font-size="14" font-weight="400" fill="#FFFFFF" text-anchor="start"><tspan x="0" y="14">Prontuários</tspan></text></g></g><g transform="translate(12 220.0)"><g transform="translate(12 11.5)"><svg width="21.0" height="21.0" viewBox="0 0 24 24" fill="none" stroke="#FFFFFF" stroke-width="1.75" stroke-linecap="round" stroke-linejoin="round"><path d="M2 9.5a5.5 5.5 0 0 1 9.591-3.676.56.56 0 0 0 .818 0A5.49 5.49 0 0 1 22 9.5c0 2.29-1.5 4-3 5.5l-5.492 5.313a2 2 0 0 1-3 .019L5 15c-1.5-1.5-3-3.2-3-5.5"/><path d="M3.22 13H9.5l.5-1 2 4.5 2-7 1.5 3.5h5.27"/></svg></g><g transform="translate(45.0 11.5)"><text font-family="Arial,Nimbus Sans,sans-serif" font-size="14" font-weight="400" fill="#FFFFFF" text-anchor="start"><tspan x="0" y="14">Triagem</tspan></text></g></g><g transform="translate(12 270.0)"><g transform="translate(12 11.5)"><svg width="21.0" height="21.0" viewBox="0 0 24 24" fill="none" stroke="#FFFFFF" stroke-width="1.75" stroke-linecap="round" stroke-linejoin="round"><path d="M11 2v2"/><path d="M5 2v2"/><path d="M5 3H4a2 2 0 0 0-2 2v4a6 6 0 0 0 12 0V5a2 2 0 0 0-2-2h-1"/><path d="M8 15a6 6 0 0 0 12 0v-3"/><circle cx="20" cy="10" r="2"/></svg></g><g transform="translate(45.0 11.5)"><text font-family="Arial,Nimbus Sans,sans-serif" font-size="14" font-weight="400" fill="#FFFFFF" text-anchor="start"><tspan x="0" y="14">Enfermagem</tspan></text></g></g><g transform="translate(12 320.0)"><g transform="translate(12 11.5)"><svg width="21.0" height="21.0" viewBox="0 0 24 24" fill="none" stroke="#FFFFFF" stroke-width="1.75" stroke-linecap="round" stroke-linejoin="round"><path d="M14 2v6a2 2 0 0 0 .245.96l5.51 10.08A2 2 0 0 1 18 22H6a2 2 0 0 1-1.755-2.96l5.51-10.08A2 2 0 0 0 10 8V2"/><path d="M6.453 15h11.094"/><path d="M8.5 2h7"/></svg></g><g transform="translate(45.0 11.5)"><text font-family="Arial,Nimbus Sans,sans-serif" font-size="14" font-weight="400" fill="#FFFFFF" text-anchor="start"><tspan x="0" y="14">Exames</tspan></text></g></g><g transform="translate(12 370.0)"><g transform="translate(12 11.5)"><svg width="21.0" height="21.0" viewBox="0 0 24 24" fill="none" stroke="#FFFFFF" stroke-width="1.75" stroke-linecap="round" stroke-linejoin="round"><circle cx="6" cy="6" r="3"/><path d="M8.12 8.12 12 12"/><path d="M20 4 8.12 15.88"/><circle cx="6" cy="18" r="3"/><path d="M14.8 14.8 20 20"/></svg></g><g transform="translate(45.0 11.5)"><text font-family="Arial,Nimbus Sans,sans-serif" font-size="14" font-weight="400" fill="#FFFFFF" text-anchor="start"><tspan x="0" y="14">Cirurgias</tspan></text></g></g><g transform="translate(12 420.0)"><g transform="translate(12 11.5)"><svg width="21.0" height="21.0" viewBox="0 0 24 24" fill="none" stroke="#FFFFFF" stroke-width="1.75" stroke-linecap="round" stroke-linejoin="round"><path d="M15 2h-4a2 2 0 0 0-2 2v11a2 2 0 0 0 2 2h8a2 2 0 0 0 2-2V8"/><path d="M16.706 2.706A2.4 2.4 0 0 0 15 2v5a1 1 0 0 0 1 1h5a2.4 2.4 0 0 0-.706-1.706z"/><path d="M5 7a2 2 0 0 0-2 2v11a2 2 0 0 0 2 2h8a2 2 0 0 0 1.732-1"/></svg></g><g transform="translate(45.0 11.5)"><text font-family="Arial,Nimbus Sans,sans-serif" font-size="14" font-weight="400" fill="#FFFFFF" text-anchor="start"><tspan x="0" y="14">Documentos</tspan></text></g></g><g transform="translate(12 470.0)"><g transform="translate(12 11.5)"><svg width="21.0" height="21.0" viewBox="0 0 24 24" fill="none" stroke="#FFFFFF" stroke-width="1.75" stroke-linecap="round" stroke-linejoin="round"><path d="m16 17 5-5-5-5"/><path d="M21 12H9"/><path d="M9 21H5a2 2 0 0 1-2-2V5a2 2 0 0 1 2-2h4"/></svg></g><g transform="translate(45.0 11.5)"><text font-family="Arial,Nimbus Sans,sans-serif" font-size="14" font-weight="400" fill="#FFFFFF" text-anchor="start"><tspan x="0" y="14">Saídas hospitalares</tspan></text></g></g><g transform="translate(12 520.0)"><g transform="translate(12 11.5)"><svg width="21.0" height="21.0" viewBox="0 0 24 24" fill="none" stroke="#FFFFFF" stroke-width="1.75" stroke-linecap="round" stroke-linejoin="round"><path d="M9.671 4.136a2.34 2.34 0 0 1 4.659 0 2.34 2.34 0 0 0 3.319 1.915 2.34 2.34 0 0 1 2.33 4.033 2.34 2.34 0 0 0 0 3.831 2.34 2.34 0 0 1-2.33 4.033 2.34 2.34 0 0 0-3.319 1.915 2.34 2.34 0 0 1-4.659 0 2.34 2.34 0 0 0-3.32-1.915 2.34 2.34 0 0 1-2.33-4.033 2.34 2.34 0 0 0 0-3.831A2.34 2.34 0 0 1 6.35 6.051a2.34 2.34 0 0 0 3.319-1.915"/><circle cx="12" cy="12" r="3"/></svg></g><g transform="translate(45.0 11.5)"><text font-family="Arial,Nimbus Sans,sans-serif" font-size="14" font-weight="400" fill="#FFFFFF" text-anchor="start"><tspan x="0" y="14">Configurações</tspan></text></g></g><g transform="translate(12 570.0)"></g><g transform="translate(12 576.0)"><g transform="translate(12 20.5)"><svg width="21.0" height="21.0" viewBox="0 0 24 24" fill="none" stroke="#FFFFFF" stroke-width="1.75" stroke-linecap="round" stroke-linejoin="round"><circle cx="12" cy="8" r="5"/><path d="M20 21a8 8 0 0 0-16 0"/></svg></g><g transform="translate(45.0 9.5)"><g transform="translate(0 0)"><text font-family="Arial,Nimbus Sans,sans-serif" font-size="14" font-weight="700" fill="#FFFFFF" text-anchor="start"><tspan x="0" y="14">Ana Souza</tspan></text></g><g transform="translate(0 25)"><text font-family="Arial,Nimbus Sans,sans-serif" font-size="12" font-weight="400" fill="#FFFFFF" text-anchor="start"><tspan x="0" y="12">Téc. de enfermagem</tspan></text></g></g></g></g><g transform="translate(240.0 0)"><rect x="0.5" y="0.5" width="1199.0" height="558.0" rx="0" fill="#F5F7F7" stroke="none"/><g transform="translate(0 0)"><rect x="0.5" y="0.5" width="1199.0" height="63.0" rx="0" fill="#FFFFFF" stroke="none"/><g transform="translate(32 21.5)"><text font-family="Arial,Nimbus Sans,sans-serif" font-size="14" font-weight="700" fill="#0B4352" text-anchor="start"><tspan x="0" y="14">Hospital escola / Enfermaria A</tspan></text></g><g transform="translate(1147.0 21.5)"><svg width="21.0" height="21.0" viewBox="0 0 24 24" fill="none" stroke="#0B4352" stroke-width="1.75" stroke-linecap="round" stroke-linejoin="round"><circle cx="12" cy="8" r="5"/><path d="M20 21a8 8 0 0 0-16 0"/></svg></g></g><g transform="translate(0 64.0)"><g transform="translate(0 0)"><g transform="translate(32 32)"><text font-family="Arial,Nimbus Sans,sans-serif" font-size="28" font-weight="700" fill="#171A1C" text-anchor="start"><tspan x="0" y="28">Cirurgias</tspan></text></g><g transform="translate(32 97)"><text font-family="Arial,Nimbus Sans,sans-serif" font-size="14" font-weight="400" fill="#667075" text-anchor="start"><tspan x="0" y="14">Procedimentos hospitalares programados</tspan></text></g><g transform="translate(32 142)"><g transform="translate(0 0)"><g transform="translate(0 0)"><g transform="translate(0 0)"><text font-family="Arial,Nimbus Sans,sans-serif" font-size="13" font-weight="700" fill="#171A1C" text-anchor="start"><tspan x="0" y="13">Data</tspan></text></g><g transform="translate(0 27)"><rect x="0.5" y="0.5" width="557.0" height="45.0" rx="6" fill="#FFFFFF" stroke="#DDE3E5"/><g transform="translate(12 12.5)"><text font-family="Arial,Nimbus Sans,sans-serif" font-size="14" font-weight="400" fill="#667075" text-anchor="start"><tspan x="0" y="14">27/09/2026</tspan></text></g></g></g><g transform="translate(578.0 0)"><g transform="translate(0 0)"><text font-family="Arial,Nimbus Sans,sans-serif" font-size="13" font-weight="700" fill="#171A1C" text-anchor="start"><tspan x="0" y="13">Situação</tspan></text></g><g transform="translate(0 27)"><rect x="0.5" y="0.5" width="557.0" height="45.0" rx="6" fill="#FFFFFF" stroke="#DDE3E5"/><g transform="translate(12 12.5)"><text font-family="Arial,Nimbus Sans,sans-serif" font-size="14" font-weight="400" fill="#667075" text-anchor="start"><tspan x="0" y="14">Todas</tspan></text></g><g transform="translate(526.0 13.0)"><svg width="20.0" height="20.0" viewBox="0 0 24 24" fill="none" stroke="#667075" stroke-width="1.75" stroke-linecap="round" stroke-linejoin="round"><path d="m6 9 6 6 6-6"/></svg></g></g></g></g></g><g transform="translate(32 239.0)"><rect x="0.5" y="0.5" width="1135.0" height="153" rx="6" fill="#DDE3E5" stroke="#DDE3E5"/><g transform="translate(0 0)"><rect x="0.5" y="0.5" width="1135.0" height="49" rx="0" fill="#F5F7F7" stroke="none"/><g transform="translate(16 16.0)"><text font-family="Arial,Nimbus Sans,sans-serif" font-size="12" font-weight="700" fill="#667075" text-anchor="start"><tspan x="0" y="12">Paciente / prontuário</tspan></text></g><g transform="translate(202.66666666666666 16.0)"><text font-family="Arial,Nimbus Sans,sans-serif" font-size="12" font-weight="700" fill="#667075" text-anchor="start"><tspan x="0" y="12">Cirurgia / procedimento</tspan></text></g><g transform="translate(389.3333333333333 16.0)"><text font-family="Arial,Nimbus Sans,sans-serif" font-size="12" font-weight="700" fill="#667075" text-anchor="start"><tspan x="0" y="12">Data / hora</tspan></text></g><g transform="translate(576.0 16.0)"><text font-family="Arial,Nimbus Sans,sans-serif" font-size="12" font-weight="700" fill="#667075" text-anchor="start"><tspan x="0" y="12">Sala</tspan></text></g><g transform="translate(762.6666666666666 16.0)"><text font-family="Arial,Nimbus Sans,sans-serif" font-size="12" font-weight="700" fill="#667075" text-anchor="start"><tspan x="0" y="12">Equipe</tspan></text></g><g transform="translate(949.3333333333333 16.0)"><text font-family="Arial,Nimbus Sans,sans-serif" font-size="12" font-weight="700" fill="#667075" text-anchor="start"><tspan x="0" y="12">Status</tspan></text></g></g><g transform="translate(0 51)"><g transform="translate(16 16)"><text font-family="Arial,Nimbus Sans,sans-serif" font-size="13" font-weight="400" fill="#171A1C" text-anchor="start"><tspan x="0" y="13">Maria Oliveira • PS-00124</tspan></text></g><g transform="translate(202.66666666666666 16)"><text font-family="Arial,Nimbus Sans,sans-serif" font-size="13" font-weight="400" fill="#171A1C" text-anchor="start"><tspan x="0" y="13">Procedimento programado</tspan></text></g><g transform="translate(389.3333333333333 16)"><text font-family="Arial,Nimbus Sans,sans-serif" font-size="13" font-weight="400" fill="#171A1C" text-anchor="start"><tspan x="0" y="13">27/09 • 14:00</tspan></text></g><g transform="translate(576.0 16)"><text font-family="Arial,Nimbus Sans,sans-serif" font-size="13" font-weight="400" fill="#171A1C" text-anchor="start"><tspan x="0" y="13">Sala 02</tspan></text></g><g transform="translate(762.6666666666666 16)"><text font-family="Arial,Nimbus Sans,sans-serif" font-size="13" font-weight="400" fill="#171A1C" text-anchor="start"><tspan x="0" y="13">Equipe A</tspan></text></g><g transform="translate(949.3333333333333 16)"><text font-family="Arial,Nimbus Sans,sans-serif" font-size="13" font-weight="400" fill="#171A1C" text-anchor="start"><tspan x="0" y="13">Programado</tspan></text></g></g><g transform="translate(0 103)"><g transform="translate(16 16)"><text font-family="Arial,Nimbus Sans,sans-serif" font-size="13" font-weight="400" fill="#171A1C" text-anchor="start"><tspan x="0" y="13">João Pereira • PS-00125</tspan></text></g><g transform="translate(202.66666666666666 16)"><text font-family="Arial,Nimbus Sans,sans-serif" font-size="13" font-weight="400" fill="#171A1C" text-anchor="start"><tspan x="0" y="13">Procedimento programado</tspan></text></g><g transform="translate(389.3333333333333 16)"><text font-family="Arial,Nimbus Sans,sans-serif" font-size="13" font-weight="400" fill="#171A1C" text-anchor="start"><tspan x="0" y="13">27/09 • 16:00</tspan></text></g><g transform="translate(576.0 16)"><text font-family="Arial,Nimbus Sans,sans-serif" font-size="13" font-weight="400" fill="#171A1C" text-anchor="start"><tspan x="0" y="13">Sala 01</tspan></text></g><g transform="translate(762.6666666666666 16)"><text font-family="Arial,Nimbus Sans,sans-serif" font-size="13" font-weight="400" fill="#171A1C" text-anchor="start"><tspan x="0" y="13">Equipe B</tspan></text></g><g transform="translate(949.3333333333333 16)"><text font-family="Arial,Nimbus Sans,sans-serif" font-size="13" font-weight="400" fill="#171A1C" text-anchor="start"><tspan x="0" y="13">Em preparo</tspan></text></g></g></g><g transform="translate(32 417.0)"><g transform="translate(0 0.0)"><rect x="0.5" y="0.5" width="210.0" height="45.0" rx="6" fill="#0B4352" stroke="none"/><g transform="translate(16 12.5)"><text font-family="Arial,Nimbus Sans,sans-serif" font-size="14" font-weight="700" fill="#FFFFFF" text-anchor="middle"><tspan x="89.5" y="14">Detalhes de Maria Oliveira</tspan></text></g></g></g></g></g></g></g></svg>