<svg xmlns="http://www.w3.org/2000/svg" width="600.0" height="660.0" viewBox="0 0 600.0 660.0"><g transform="translate(0 0)"><rect x="0.5" y="0.5" width="599.0" height="659.0" rx="0" fill="#F5F7F7" stroke="none"/><g transform="translate(32 32)"><text font-family="Arial,Nimbus Sans,sans-serif" font-size="28" font-weight="700" fill="#0B4352" text-anchor="start"><tspan x="0" y="28">Proz Saúde / Button/Destructive</tspan></text></g><g transform="translate(32 101)"><g transform="translate(0 0)"><text font-family="Arial,Nimbus Sans,sans-serif" font-size="14" font-weight="700" fill="#171A1C" text-anchor="start"><tspan x="0" y="14">State=Default</tspan></text></g><g transform="translate(0 37)"><rect x="0.5" y="0.5" width="179.0" height="45.0" rx="6" fill="#171A1C" stroke="none"/><g transform="translate(68.0 12.5)"><text font-family="Arial,Nimbus Sans,sans-serif" font-size="14" font-weight="700" fill="#FFFFFF" text-anchor="middle"><tspan x="22.0" y="14">Botão</tspan></text></g></g></g><g transform="translate(32 212.0)"><g transform="translate(0 0)"><text font-family="Arial,Nimbus Sans,sans-serif" font-size="14" font-weight="700" fill="#171A1C" text-anchor="start"><tspan x="0" y="14">State=Hover</tspan></text></g><g transform="translate(0 37)"><rect x="0.5" y="0.5" width="179.0" height="45.0" rx="6" fill="#07333F" stroke="none"/><g transform="translate(68.0 12.5)"><text font-family="Arial,Nimbus Sans,sans-serif" font-size="14" font-weight="700" fill="#FFFFFF" text-anchor="middle"><tspan x="22.0" y="14">Botão</tspan></text></g></g></g><g transform="translate(32 323.0)"><g transform="translate(0 0)"><text font-family="Arial,Nimbus Sans,sans-serif" font-size="14" font-weight="700" fill="#171A1C" text-anchor="start"><tspan x="0" y="14">State=Focus</tspan></text></g><g transform="translate(0 37)"><rect x="0.5" y="0.5" width="179.0" height="45.0" rx="6" fill="#171A1C" stroke="#F2D667"/><g transform="translate(68.0 12.5)"><text font-family="Arial,Nimbus Sans,sans-serif" font-size="14" font-weight="700" fill="#FFFFFF" text-anchor="middle"><tspan x="22.0" y="14">Botão</tspan></text></g></g></g><g transform="translate(32 434.0)"><g transform="translate(0 0)"><text font-family="Arial,Nimbus Sans,sans-serif" font-size="14" font-weight="700" fill="#171A1C" text-anchor="start"><tspan x="0" y="14">State=Loading</tspan></text></g><g transform="translate(0 37)"><rect x="0.5" y="0.5" width="179.0" height="45.0" rx="6" fill="#171A1C" stroke="none"/><g transform="translate(55.0 14.0)"><svg width="18.0" height="18.0" viewBox="0 0 24 24" fill="none" stroke="#FFFFFF" stroke-width="1.75" stroke-linecap="round" stroke-linejoin="round"><path d="M21 12a9 9 0 1 1-6.219-8.56"/></svg></g><g transform="translate(81.0 12.5)"><text font-family="Arial,Nimbus Sans,sans-serif" font-size="14" font-weight="700" fill="#FFFFFF" text-anchor="middle"><tspan x="22.0" y="14">Botão</tspan></text></g></g></g><g transform="translate(32 545.0)"><g transform="translate(0 0)"><text font-family="Arial,Nimbus Sans,sans-serif" font-size="14" font-weight="700" fill="#171A1C" text-anchor="start"><tspan x="0" y="14">State=Disabled</tspan></text></g><g transform="translate(0 37)"><rect x="0.5" y="0.5" width="179.0" height="45.0" rx="6" fill="#EDF0F1" stroke="#DDE3E5"/><g transform="translate(68.0 12.5)"><text font-family="Arial,Nimbus Sans,sans-serif" font-size="14" font-weight="700" fill="#667075" text-anchor="middle"><tspan x="22.0" y="14">Botão</tspan></text></g></g></g></g></svg>