<svg xmlns="http://www.w3.org/2000/svg" width="1264.0" height="450.0" viewBox="0 0 1264.0 450.0"><g transform="translate(0 0)"><rect x="0.5" y="0.5" width="1263.0" height="449.0" rx="0" fill="#F5F7F7" stroke="none"/><g transform="translate(32 32)"><text font-family="Arial,Nimbus Sans,sans-serif" font-size="28" font-weight="700" fill="#0B4352" text-anchor="start"><tspan x="0" y="28">Proz Saúde / PatientHeader</tspan></text></g><g transform="translate(32 101)"><g transform="translate(0 0)"><text font-family="Arial,Nimbus Sans,sans-serif" font-size="14" font-weight="700" fill="#171A1C" text-anchor="start"><tspan x="0" y="14">Device=Desktop</tspan></text></g><g transform="translate(0 37)"><rect x="0.5" y="0.5" width="1199.0" height="110" rx="0" fill="#FFFFFF" stroke="none"/><g transform="translate(32 16)"><g transform="translate(0 0.0)"><text font-family="Arial,Nimbus Sans,sans-serif" font-size="20" font-weight="700" fill="#171A1C" text-anchor="start"><tspan x="0" y="20">Maria Oliveira</tspan></text></g><g transform="translate(1052.0 0.5)"><rect x="0.5" y="0.5" width="83.0" height="27.0" rx="4" fill="#EAF1F3" stroke="none"/><g transform="translate(13.0 5.0)"><text font-family="Arial,Nimbus Sans,sans-serif" font-size="12" font-weight="700" fill="#0B4352" text-anchor="start"><tspan x="0" y="12">Internada</tspan></text></g></g></g><g transform="translate(32 53)"><text font-family="Arial,Nimbus Sans,sans-serif" font-size="13" font-weight="400" fill="#667075" text-anchor="start"><tspan x="0" y="13">PS-00124 • 44 anos • 14/05/1982 • Feminino</tspan></text></g><g transform="translate(32 80)"><text font-family="Arial,Nimbus Sans,sans-serif" font-size="13" font-weight="400" fill="#171A1C" text-anchor="start"><tspan x="0" y="13">Enfermaria A • Leito 12 • Internação INT-0042</tspan></text></g></g></g><g transform="translate(32 277)"><g transform="translate(0 0)"><text font-family="Arial,Nimbus Sans,sans-serif" font-size="14" font-weight="700" fill="#171A1C" text-anchor="start"><tspan x="0" y="14">Device=Mobile</tspan></text></g><g transform="translate(0 37)"><rect x="0.5" y="0.5" width="389.0" height="103.0" rx="0" fill="#FFFFFF" stroke="none"/><g transform="translate(16 12)"><g transform="translate(0 1.5)"><text font-family="Arial,Nimbus Sans,sans-serif" font-size="17" font-weight="700" fill="#171A1C" text-anchor="start"><tspan x="0" y="17">Maria Oliveira</tspan></text></g><g transform="translate(274.0 0.0)"><rect x="0.5" y="0.5" width="83.0" height="27.0" rx="4" fill="#EAF1F3" stroke="none"/><g transform="translate(13.0 5.0)"><text font-family="Arial,Nimbus Sans,sans-serif" font-size="12" font-weight="700" fill="#0B4352" text-anchor="start"><tspan x="0" y="12">Internada</tspan></text></g></g></g><g transform="translate(16 48.0)"><text font-family="Arial,Nimbus Sans,sans-serif" font-size="12" font-weight="400" fill="#667075" text-anchor="start"><tspan x="0" y="12">PS-00124 • 44 anos • 14/05/1982 • Feminino</tspan></text></g><g transform="translate(16 74.0)"><text font-family="Arial,Nimbus Sans,sans-serif" font-size="12" font-weight="400" fill="#171A1C" text-anchor="start"><tspan x="0" y="12">Enfermaria A • Leito 12 • Internação INT-0042</tspan></text></g></g></g></g></svg>