<svg xmlns="http://www.w3.org/2000/svg" width="600.0" height="1191.0" viewBox="0 0 600.0 1191.0"><g transform="translate(0 0)"><rect x="0.5" y="0.5" width="599.0" height="1190.0" rx="0" fill="#F5F7F7" stroke="none"/><g transform="translate(32 32)"><text font-family="Arial,Nimbus Sans,sans-serif" font-size="28" font-weight="700" fill="#0B4352" text-anchor="start"><tspan x="0" y="28">Proz Saúde / Textarea</tspan></text></g><g transform="translate(32 101)"><g transform="translate(0 0)"><text font-family="Arial,Nimbus Sans,sans-serif" font-size="14" font-weight="700" fill="#171A1C" text-anchor="start"><tspan x="0" y="14">State=Default</tspan></text></g><g transform="translate(0 37)"><g transform="translate(0 0)"><text font-family="Arial,Nimbus Sans,sans-serif" font-size="13" font-weight="700" fill="#171A1C" text-anchor="start"><tspan x="0" y="13">Nome do campo</tspan></text></g><g transform="translate(0 27)"><rect x="0.5" y="0.5" width="319.0" height="119.0" rx="6" fill="#FFFFFF" stroke="#DDE3E5"/><g transform="translate(12 12)"><text font-family="Arial,Nimbus Sans,sans-serif" font-size="14" font-weight="400" fill="#667075" text-anchor="start"><tspan x="0" y="14">Digite a informação</tspan></text></g></g></g></g><g transform="translate(32 313.0)"><g transform="translate(0 0)"><text font-family="Arial,Nimbus Sans,sans-serif" font-size="14" font-weight="700" fill="#171A1C" text-anchor="start"><tspan x="0" y="14">State=Focus</tspan></text></g><g transform="translate(0 37)"><g transform="translate(0 0)"><text font-family="Arial,Nimbus Sans,sans-serif" font-size="13" font-weight="700" fill="#171A1C" text-anchor="start"><tspan x="0" y="13">Nome do campo</tspan></text></g><g transform="translate(0 27)"><rect x="0.5" y="0.5" width="319.0" height="119.0" rx="6" fill="#FFFFFF" stroke="#0B4352"/><g transform="translate(12 12)"><text font-family="Arial,Nimbus Sans,sans-serif" font-size="14" font-weight="400" fill="#667075" text-anchor="start"><tspan x="0" y="14">Digite a informação</tspan></text></g></g></g></g><g transform="translate(32 525.0)"><g transform="translate(0 0)"><text font-family="Arial,Nimbus Sans,sans-serif" font-size="14" font-weight="700" fill="#171A1C" text-anchor="start"><tspan x="0" y="14">State=Error</tspan></text></g><g transform="translate(0 37)"><g transform="translate(0 0)"><text font-family="Arial,Nimbus Sans,sans-serif" font-size="13" font-weight="700" fill="#171A1C" text-anchor="start"><tspan x="0" y="13">Nome do campo</tspan></text></g><g transform="translate(0 27)"><rect x="0.5" y="0.5" width="319.0" height="119.0" rx="6" fill="#FFFFFF" stroke="#785810"/><g transform="translate(12 12)"><text font-family="Arial,Nimbus Sans,sans-serif" font-size="14" font-weight="400" fill="#667075" text-anchor="start"><tspan x="0" y="14">Digite a informação</tspan></text></g></g><g transform="translate(0 155.0)"><text font-family="Arial,Nimbus Sans,sans-serif" font-size="12" font-weight="400" fill="#785810" text-anchor="start"><tspan x="0" y="12">Confira este campo.</tspan></text></g></g></g><g transform="translate(32 763.0)"><g transform="translate(0 0)"><text font-family="Arial,Nimbus Sans,sans-serif" font-size="14" font-weight="700" fill="#171A1C" text-anchor="start"><tspan x="0" y="14">State=Disabled</tspan></text></g><g transform="translate(0 37)"><g transform="translate(0 0)"><text font-family="Arial,Nimbus Sans,sans-serif" font-size="13" font-weight="700" fill="#171A1C" text-anchor="start"><tspan x="0" y="13">Nome do campo</tspan></text></g><g transform="translate(0 27)"><rect x="0.5" y="0.5" width="319.0" height="119.0" rx="6" fill="#EDF0F1" stroke="#DDE3E5"/><g transform="translate(12 12)"><text font-family="Arial,Nimbus Sans,sans-serif" font-size="14" font-weight="400" fill="#667075" text-anchor="start"><tspan x="0" y="14">Digite a informação</tspan></text></g></g></g></g><g transform="translate(32 975.0)"><g transform="translate(0 0)"><text font-family="Arial,Nimbus Sans,sans-serif" font-size="14" font-weight="700" fill="#171A1C" text-anchor="start"><tspan x="0" y="14">State=ReadOnly</tspan></text></g><g transform="translate(0 37)"><g transform="translate(0 0)"><text font-family="Arial,Nimbus Sans,sans-serif" font-size="13" font-weight="700" fill="#171A1C" text-anchor="start"><tspan x="0" y="13">Nome do campo</tspan></text></g><g transform="translate(0 27)"><rect x="0.5" y="0.5" width="319.0" height="119.0" rx="6" fill="#F5F7F7" stroke="#DDE3E5"/><g transform="translate(12 12)"><text font-family="Arial,Nimbus Sans,sans-serif" font-size="14" font-weight="400" fill="#667075" text-anchor="start"><tspan x="0" y="14">Digite a informação</tspan></text></g></g></g></g></g></svg>