<svg xmlns="http://www.w3.org/2000/svg" width="600.0" height="293.0" viewBox="0 0 600.0 293.0"><g transform="translate(0 0)"><rect x="0.5" y="0.5" width="599.0" height="292.0" rx="0" fill="#F5F7F7" stroke="none"/><g transform="translate(32 32)"><text font-family="Arial,Nimbus Sans,sans-serif" font-size="28" font-weight="700" fill="#0B4352" text-anchor="start"><tspan x="0" y="28">Proz Saúde / Uploader</tspan></text></g><g transform="translate(32 101)"><g transform="translate(0 0)"><text font-family="Arial,Nimbus Sans,sans-serif" font-size="14" font-weight="700" fill="#171A1C" text-anchor="start"><tspan x="0" y="14">Default</tspan></text></g><g transform="translate(0 37)"><rect x="0.5" y="0.5" width="479.0" height="122.0" rx="8" fill="#FFFFFF" stroke="#DDE3E5"/><g transform="translate(20 20)"><g transform="translate(0 0.0)"><svg width="22.0" height="22.0" viewBox="0 0 24 24" fill="none" stroke="#0B4352" stroke-width="1.75" stroke-linecap="round" stroke-linejoin="round"><path d="M12 3v12"/><path d="m17 8-5-5-5 5"/><path d="M21 15v4a2 2 0 0 1-2 2H5a2 2 0 0 1-2-2v-4"/></svg></g><g transform="translate(32.0 0.0)"><text font-family="Arial,Nimbus Sans,sans-serif" font-size="15" font-weight="700" fill="#0B4352" text-anchor="start"><tspan x="0" y="15">Adicionar documento</tspan></text></g></g><g transform="translate(20 54.0)"><text font-family="Arial,Nimbus Sans,sans-serif" font-size="13" font-weight="400" fill="#667075" text-anchor="start"><tspan x="0" y="13">Selecione um arquivo ou arraste para esta área.</tspan></text></g><g transform="translate(20 85.0)"><text font-family="Arial,Nimbus Sans,sans-serif" font-size="12" font-weight="400" fill="#667075" text-anchor="start"><tspan x="0" y="12">PDF, JPG ou PNG • Até 10 MB</tspan></text></g></g></g></g></svg>